Genre:Comedy
Language:English
 
http://www.imdb.com/title/tt0970866/

Source:1080p.BluRay.x264-TWiZTED
Subtitles:Romana

Format : MPEG-4
Format profile : Base Media
Codec ID : isom
File size : 2.34 GiB
Duration : 1h 37mn
Overall bit rate : 3 424 Kbps

Video
Format profile : High@L4.1
Format settings, CABAC : Yes
Format settings, ReFrames : 3 frames
Codec ID : avc1
Codec ID/Info : Advanced Video Coding
Duration : 1h 37mn
Bit rate mode : Variable
Bit rate : 3 000 Kbps
Maximum bit rate : 14.3 Mbps
Width : 1 280 pixels
Height : 720 pixels
Display aspect ratio : 16:9
Frame rate mode : Constant
Frame rate : 23.976 fps
Color space : YUV
Chroma subsampling : 4:2:0
Bit depth : 8 bits
Scan type : Progressive
Bits/(Pixel*Frame) : 0.136
Stream size : 2.04 GiB (87%)
Writing library : x264

Audio
ID : 2
Format : AAC
Format/Info : Advanced Audio Codec
Format version : Version 4
Format profile : LC
Format settings, SBR : No
Codec ID : 40
Duration : 1h 37mn
Bit rate mode : Variable
Bit rate : 434 Kbps
Maximum bit rate : 543 Kbps
Channel(s) : 6 channels
Channel positions : Front: L C R, Side: L R, LFE
Sampling rate : 48.0 KHz
Stream size : 303 MiB (13%)


Plot:
Family-patriarch Jack Byrnes wants to appoint a successor. Does his son-in-law, the "male nurse", Greg Focker have what it takes?
 
http://www.pix2links.com/images/84156684755502272705.png
 
http://www.pix2links.com/images/12535047063614657280.png
 
http://www.pix2links.com/images/68044891384632511740.png
 
http://www.pix2links.com/images/84935430511877067214.png
 
http://www.pix2links.com/images/25710567425264986966.png